<svg id="Ebene_1" data-name="Ebene 1" xmlns="http://www.w3.org/2000/svg" viewBox="0 0 24 24"><defs><style>.cls-1{fill:#8a8a86;}</style></defs><path class="cls-1" d="M12,5a.5.5,0,0,1-.5-.5v-2a.5.5,0,0,1,1,0v2A.5.5,0,0,1,12,5Z"/><path class="cls-1" d="M12,22a.5.5,0,0,1-.5-.5v-2a.5.5,0,0,1,1,0v2A.5.5,0,0,1,12,22Z"/><path class="cls-1" d="M17.3,7.2A.5.5,0,0,1,17,7.05a.5.5,0,0,1,0-.71l1.41-1.41a.5.5,0,0,1,.71.71L17.66,7.05A.51.51,0,0,1,17.3,7.2Z"/><path class="cls-1" d="M5.28,19.22a.49.49,0,0,1-.35-.15.5.5,0,0,1,0-.71L6.34,17a.5.5,0,1,1,.71.71L5.64,19.07A.51.51,0,0,1,5.28,19.22Z"/><path class="cls-1" d="M21.5,12.54h-2A.5.5,0,0,1,19,12a.5.5,0,0,1,.5-.5h2a.5.5,0,0,1,.5.5A.5.5,0,0,1,21.5,12.54Z"/><path class="cls-1" d="M4.5,12.47h-2A.5.5,0,0,1,2,12a.5.5,0,0,1,.5-.5h2A.5.5,0,0,1,5,12,.5.5,0,0,1,4.5,12.47Z"/><path class="cls-1" d="M18.69,19.25a.51.51,0,0,1-.36-.15l-1.41-1.42a.5.5,0,0,1,0-.71.51.51,0,0,1,.71,0L19,18.4a.48.48,0,0,1,0,.7A.5.5,0,0,1,18.69,19.25Z"/><path class="cls-1" d="M6.72,7.17A.51.51,0,0,1,6.36,7L5,5.6a.48.48,0,0,1,0-.7.5.5,0,0,1,.71,0L7.08,6.32a.5.5,0,0,1,0,.71A.46.46,0,0,1,6.72,7.17Z"/><path class="cls-1" d="M12,7a5,5,0,1,1-5,5,5,5,0,0,1,5-5m0-1a6,6,0,1,0,6,6,6,6,0,0,0-6-6Z"/></svg>