<svg id="Ebene_1" data-name="Ebene 1" xmlns="http://www.w3.org/2000/svg" viewBox="0 0 24 24"><path class="cls-1" d="M20,8.93a7.65,7.65,0,0,0-2.34-5.49,8.17,8.17,0,0,0-11.32,0A7.65,7.65,0,0,0,4,8.93c0,3.56,2.46,8.91,5.81,10.65l-.47,1.64a.51.51,0,0,0,.48.64h4.36a.54.54,0,0,0,.4-.2.53.53,0,0,0,.08-.44l-.47-1.65a6.74,6.74,0,0,0,2-1.54A14.8,14.8,0,0,0,20,8.93ZM13.51,20.86h-3l.25-.89,0,0a4.39,4.39,0,0,0,2.42,0l0,0ZM12.93,19a3.26,3.26,0,0,1-.93.13,3.38,3.38,0,0,1-.94-.13C7.86,18.11,5,12.62,5,8.93A6.58,6.58,0,0,1,7,4.16a7.15,7.15,0,0,1,9.92,0,6.58,6.58,0,0,1,2,4.77,13.73,13.73,0,0,1-3.54,8.43A5.88,5.88,0,0,1,12.93,19Z"/></svg>