<svg id="Ebene_1" data-name="Ebene 1" xmlns="http://www.w3.org/2000/svg" viewBox="0 0 24 24"><defs></defs><path class="cls-1" d="M19.91,16.58l-7-15a1,1,0,0,0-1.82,0l-7,15a1,1,0,0,0,.15,1.07A1,1,0,0,0,5,18a.84.84,0,0,0,.27,0L12,16,18.73,18A.84.84,0,0,0,19,18a1,1,0,0,0,.76-.35A1,1,0,0,0,19.91,16.58ZM12,2ZM5,17,11.5,3.07V15.14Zm7.5-1.86V3.07L19,17Z"/><path class="cls-1" d="M12,17a.5.5,0,0,0-.5.5v3a.5.5,0,0,0,1,0v-3A.5.5,0,0,0,12,17Z"/><path class="cls-1" d="M9.5,18a.5.5,0,0,0-.5.5v3a.5.5,0,0,0,1,0v-3A.5.5,0,0,0,9.5,18Z"/><path class="cls-1" d="M14.5,18a.5.5,0,0,0-.5.5v3a.5.5,0,0,0,1,0v-3A.5.5,0,0,0,14.5,18Z"/></svg>