<svg id="Ebene_1" data-name="Ebene 1" xmlns="http://www.w3.org/2000/svg" viewBox="0 0 24 24"><path class="cls-1" d="M12,2A10,10,0,1,0,22,12,10,10,0,0,0,12,2Zm0,19a9,9,0,1,1,9-9A9,9,0,0,1,12,21Z"/><path class="cls-1" d="M16.76,12a11.84,11.84,0,0,0,1.29-2.64c.55-1.71.31-2.81-.21-3.33a2.16,2.16,0,0,0-1.57-.53,5.63,5.63,0,0,0-1.77.32,11,11,0,0,0-2.64,1.29A11,11,0,0,0,9.22,5.82,5.54,5.54,0,0,0,7.45,5.5,2.11,2.11,0,0,0,5.89,6c-.53.52-.76,1.62-.21,3.33A11,11,0,0,0,7,12a11,11,0,0,0-1.29,2.64c-.55,1.71-.32,2.81.21,3.33a2.11,2.11,0,0,0,1.56.53,5.54,5.54,0,0,0,1.77-.32,11,11,0,0,0,2.64-1.29,11,11,0,0,0,2.64,1.29,5.63,5.63,0,0,0,1.77.32A2.16,2.16,0,0,0,17.84,18c.52-.52.76-1.62.21-3.33A11.84,11.84,0,0,0,16.76,12Zm-2-5.23a4.79,4.79,0,0,1,1.46-.27,1.34,1.34,0,0,1,.86.23c.2.2.42.92,0,2.32a9.94,9.94,0,0,1-1,2.06A17.21,17.21,0,0,0,14.56,9.3a17.21,17.21,0,0,0-1.81-1.57A9.94,9.94,0,0,1,14.81,6.77ZM15.54,12a15.63,15.63,0,0,1-1.69,2,15.63,15.63,0,0,1-2,1.69,16.36,16.36,0,0,1-2-1.69,15.63,15.63,0,0,1-1.69-2,15.63,15.63,0,0,1,1.69-2,16.36,16.36,0,0,1,2-1.69,15.63,15.63,0,0,1,2,1.69A15.63,15.63,0,0,1,15.54,12ZM6.63,9.05c-.45-1.4-.24-2.12,0-2.32a1.34,1.34,0,0,1,.86-.23,4.79,4.79,0,0,1,1.46.27,9.94,9.94,0,0,1,2.06,1A17.21,17.21,0,0,0,9.16,9.3,16,16,0,0,0,7.6,11.11,9.51,9.51,0,0,1,6.63,9.05Zm2.28,8.18a4.79,4.79,0,0,1-1.46.27,1.34,1.34,0,0,1-.86-.23c-.2-.2-.41-.92,0-2.32a9.51,9.51,0,0,1,1-2.06A16,16,0,0,0,9.16,14.7,17.21,17.21,0,0,0,11,16.27,9.94,9.94,0,0,1,8.91,17.23Zm8.22,0a1.34,1.34,0,0,1-.86.23,4.79,4.79,0,0,1-1.46-.27,9.94,9.94,0,0,1-2.06-1,17.21,17.21,0,0,0,1.81-1.57,17.21,17.21,0,0,0,1.57-1.81,9.94,9.94,0,0,1,1,2.06C17.55,16.35,17.33,17.07,17.13,17.27Z"/></svg>