<svg id="Ebene_1" data-name="Ebene 1" xmlns="http://www.w3.org/2000/svg" viewBox="0 0 24 24"><defs><style>.cls-1{fill:#8a8a86;}</style></defs><path class="cls-1" d="M20.69,16.28,19,15.44V8.56l1.69-.84a.51.51,0,0,0,.22-.67.5.5,0,0,0-.67-.23l-1.76.88-6-3.41V2.59a.5.5,0,0,0-1,0v1.7l-6,3.41L3.76,6.82a.5.5,0,0,0-.67.23.51.51,0,0,0,.22.67L5,8.56v6.88l-1.69.84a.51.51,0,0,0-.22.67.5.5,0,0,0,.45.28.59.59,0,0,0,.22-.05l1.76-.88,6,3.41v1.72a.5.5,0,0,0,1,0V19.71l6-3.41,1.76.88a.59.59,0,0,0,.22.05.5.5,0,0,0,.45-.28A.51.51,0,0,0,20.69,16.28ZM12,18.85,6,15.42V8.58l6-3.43,6,3.43v6.84Z"/></svg>