<svg id="Ebene_1" data-name="Ebene 1" xmlns="http://www.w3.org/2000/svg" viewBox="0 0 24 24"><defs><style>.cls-1{fill:#8a8a86;}</style></defs><path class="cls-1" d="M13.1,22a6.25,6.25,0,0,1-5.19-2.54A10.58,10.58,0,0,1,6,12.86V11.09a12.11,12.11,0,0,1,.88-4.74A7.34,7.34,0,0,1,9.44,3.13,6.76,6.76,0,0,1,13.3,2,6.31,6.31,0,0,1,18,3.79a7.72,7.72,0,0,1,2,4.86.51.51,0,0,1-.45.55A.52.52,0,0,1,19,8.74,6.63,6.63,0,0,0,17.25,4.5,5.23,5.23,0,0,0,13.3,3,5.69,5.69,0,0,0,10,4,6.23,6.23,0,0,0,7.8,6.75,11,11,0,0,0,7,11.09v1.77a9.64,9.64,0,0,0,1.7,6A5.22,5.22,0,0,0,13.1,21a5.66,5.66,0,0,0,4.08-1.45A6.66,6.66,0,0,0,19,15.33a.51.51,0,0,1,.55-.45.5.5,0,0,1,.45.55,7.59,7.59,0,0,1-2.13,4.84A6.64,6.64,0,0,1,13.1,22Z"/><path class="cls-1" d="M4,3A1,1,0,1,1,3,4,1,1,0,0,1,4,3M4,2A2,2,0,1,0,6,4,2,2,0,0,0,4,2Z"/></svg>