<svg id="Ebene_1" data-name="Ebene 1" xmlns="http://www.w3.org/2000/svg" viewBox="0 0 24 24"><defs><style>.cls-1{fill:#8a8a86;}</style></defs><path class="cls-1" d="M12,9a4,4,0,1,1-4,4,4,4,0,0,1,4-4m0-1a5,5,0,1,0,5,5,5,5,0,0,0-5-5Z"/><path class="cls-1" d="M15.07,5h0L16,6.51l.29.49H21a1,1,0,0,1,1,1V18a1,1,0,0,1-1,1H3a1,1,0,0,1-1-1V8A1,1,0,0,1,3,7H7.41l.29-.49L8.61,5h6.46m0-1H8.61a1,1,0,0,0-.86.49L6.84,6H3A2,2,0,0,0,1,8V18a2,2,0,0,0,2,2H21a2,2,0,0,0,2-2V8a2,2,0,0,0-2-2H16.84l-.9-1.51A1,1,0,0,0,15.07,4Z"/></svg>