<svg id="Ebene_1" data-name="Ebene 1" xmlns="http://www.w3.org/2000/svg" viewBox="0 0 20 20"><defs><style>.cls-1{fill:#212121;}</style></defs><path class="cls-1" d="M7.27,15V8.25H5.13V15ZM6.2,7.33A1.14,1.14,0,0,0,7.41,6.17,1.13,1.13,0,0,0,6.21,5a1.17,1.17,0,1,0,0,2.33ZM8.46,15H10.6V11.23a1.48,1.48,0,0,1,.07-.54,1.19,1.19,0,0,1,1.1-.83c.78,0,1.09.62,1.09,1.53V15H15V11.13c0-2.07-1.06-3-2.47-3a2.12,2.12,0,0,0-1.94,1.14h0v-1H8.46c0,.64,0,6.75,0,6.75Z"/><path class="cls-1" d="M17,3V17H3V3H17m0-1H3A1,1,0,0,0,2,3V17a1,1,0,0,0,1,1H17a1,1,0,0,0,1-1V3a1,1,0,0,0-1-1Z"/></svg>