<svg id="Ebene_1" data-name="Ebene 1" xmlns="http://www.w3.org/2000/svg" viewBox="0 0 32 32"><defs><style>.cls-1{fill:#212121;}</style></defs><path class="cls-1" d="M26.91,30H5.09A3.1,3.1,0,0,1,2,26.91V5.09A3.1,3.1,0,0,1,5.09,2H26.91A3.1,3.1,0,0,1,30,5.09V26.91A3.1,3.1,0,0,1,26.91,30ZM5.09,4A1.09,1.09,0,0,0,4,5.09V26.91A1.09,1.09,0,0,0,5.09,28H26.91A1.09,1.09,0,0,0,28,26.91V5.09A1.09,1.09,0,0,0,26.91,4Z"/><path class="cls-1" d="M10.88,24.76V13H7V24.76Zm-2-13.34a2,2,0,1,0,0-4.06,2,2,0,0,0-2.22,2,2,2,0,0,0,2.17,2Zm4.14,13.34H17V18.21a2.73,2.73,0,0,1,.13-.95,2.15,2.15,0,0,1,2-1.43c1.42,0,2,1.08,2,2.65v6.28H25V18c0-3.6-1.94-5.28-4.52-5.28a3.9,3.9,0,0,0-3.56,2h0V13H13.06c0,1.11,0,11.74,0,11.74Z"/></svg>