<svg id="Ebene_1" data-name="Ebene 1" xmlns="http://www.w3.org/2000/svg" viewBox="0 0 20 20"><defs><style>.cls-1{fill:#212121;}.cls-2{fill:none;stroke:#212121;stroke-miterlimit:10;}</style></defs><path class="cls-1" d="M12.5,10.24a1.53,1.53,0,0,1-.8,1.4,1.76,1.76,0,0,1,.63,1.46,1.69,1.69,0,0,1-.63,1.39A2.64,2.64,0,0,1,10,15a2.77,2.77,0,0,1-1.82-.56,2,2,0,0,1-.67-1.61H8.63a1.07,1.07,0,0,0,.36.87A1.46,1.46,0,0,0,10,14a1.49,1.49,0,0,0,.89-.24.78.78,0,0,0,.33-.65.73.73,0,0,0-.32-.63A4.24,4.24,0,0,0,9.71,12a5.37,5.37,0,0,1-1.32-.54,1.83,1.83,0,0,1-.65-.68,1.88,1.88,0,0,1-.22-1,1.52,1.52,0,0,1,.79-1.41,1.69,1.69,0,0,1-.47-.6,2.17,2.17,0,0,1-.15-.86,1.71,1.71,0,0,1,.64-1.4A2.59,2.59,0,0,1,10,5a2.46,2.46,0,0,1,1.74.58A2.1,2.1,0,0,1,12.4,7.2H11.27a1.15,1.15,0,0,0-.34-.87A1.21,1.21,0,0,0,10,6a1.5,1.5,0,0,0-.9.24.82.82,0,0,0-.32.67.78.78,0,0,0,.28.65,3.88,3.88,0,0,0,1.18.49,5.26,5.26,0,0,1,1.35.56,1.86,1.86,0,0,1,.66.68A2,2,0,0,1,12.5,10.24ZM9.88,9.12c-.25-.07-.5-.16-.73-.25a.8.8,0,0,0-.5.84.8.8,0,0,0,.23.63,2.79,2.79,0,0,0,.92.47l.83.27.22.08a.85.85,0,0,0,.53-.84.81.81,0,0,0-.31-.67A4.59,4.59,0,0,0,9.88,9.12Z"/><path class="cls-1" d="M13,2a1.85,1.85,0,0,1,1,.41L15.59,4A1.85,1.85,0,0,1,16,5V18H4V2h9m0-1H4A1,1,0,0,0,3,2V18a1,1,0,0,0,1,1H16a1,1,0,0,0,1-1V5a2.79,2.79,0,0,0-.71-1.71L14.71,1.71A2.79,2.79,0,0,0,13,1Z"/><path class="cls-2" d="M13,2V4a1,1,0,0,0,1,1h2"/></svg>